<svg xmlns="http://www.w3.org/2000/svg" width="26" height="26" viewBox="0 0 26 26" fill="none">
  <path d="M11.9599 24.7596C11.8351 24.7594 11.7113 24.7376 11.5939 24.695C11.3676 24.6121 11.1756 24.4557 11.0487 24.2507C10.9219 24.0458 10.8675 23.8042 10.8942 23.5646L11.7231 15.9322H5.38251C5.18694 15.9325 4.99499 15.8795 4.82726 15.779C4.65954 15.6784 4.52238 15.534 4.43052 15.3614C4.33866 15.1887 4.29557 14.9943 4.30588 14.799C4.31618 14.6037 4.37949 14.4149 4.48901 14.2529L12.9826 1.55014C13.117 1.35135 13.3138 1.20313 13.542 1.12902C13.7702 1.05491 14.0166 1.05915 14.2421 1.14106C14.4589 1.22155 14.644 1.3697 14.7701 1.56358C14.8961 1.75747 14.9563 1.98678 14.9419 2.21757L14.113 9.9038H20.4536C20.6491 9.90351 20.8411 9.9565 21.0088 10.0571C21.1765 10.1576 21.3137 10.302 21.4055 10.4747C21.4974 10.6473 21.5405 10.8417 21.5302 11.037C21.5199 11.2323 21.4566 11.4211 21.3471 11.5832L12.8534 24.2859C12.7547 24.432 12.6216 24.5516 12.4658 24.6342C12.31 24.7168 12.1363 24.7598 11.9599 24.7596Z" fill="#303030"/>
</svg>