<svg xmlns="http://www.w3.org/2000/svg" width="22" height="20" viewBox="0 0 22 20" fill="none">
  <path d="M3.44814 13.1166C3.10214 13.1166 2.75354 13.1166 2.40754 13.1166C2.05634 13.1166 1.69733 13.1421 1.34873 13.1115C1.41897 13.1217 1.48661 13.1293 1.55685 13.1395C1.49702 13.1319 1.44499 13.1166 1.38776 13.0962C1.45019 13.1217 1.51263 13.1472 1.57506 13.1726C1.54385 13.1599 1.51523 13.1421 1.48401 13.1268C1.36694 13.0707 1.6349 13.2644 1.52303 13.1548C1.41637 13.0503 1.58807 13.2721 1.55945 13.2058C1.54385 13.1701 1.52043 13.137 1.50482 13.1013C1.53084 13.1625 1.55685 13.2236 1.58287 13.2848C1.56206 13.2313 1.54905 13.1777 1.53864 13.1191C1.54905 13.1879 1.55685 13.2542 1.56726 13.3231C1.55165 13.1319 1.56206 12.933 1.56206 12.7418C1.56206 12.3135 1.56206 11.8877 1.56206 11.4594C1.56206 10.4983 1.56206 9.53968 1.56206 8.57854C1.56206 8.34144 1.54645 8.09924 1.56726 7.86469C1.55685 7.93353 1.54905 7.99981 1.53864 8.06865C1.54645 8.01001 1.56206 7.95902 1.58287 7.90293C1.55685 7.96412 1.53084 8.02531 1.50482 8.08649C1.51783 8.0559 1.53604 8.02786 1.55165 7.99726C1.60888 7.88254 1.41117 8.14513 1.52303 8.0355C1.62969 7.93098 1.40336 8.09924 1.471 8.0712C1.50742 8.0559 1.54124 8.03295 1.57766 8.01766C1.51523 8.04315 1.45279 8.06865 1.39036 8.09414C1.44499 8.07375 1.49962 8.061 1.55945 8.0508C1.48921 8.061 1.42157 8.06865 1.35133 8.07884C1.71034 8.04825 2.07975 8.07375 2.43616 8.07375C2.79517 8.07375 3.16458 8.04825 3.52098 8.07884C3.45074 8.06865 3.3831 8.061 3.31286 8.0508C3.3727 8.05845 3.42473 8.07375 3.48196 8.09414C3.41953 8.06865 3.35709 8.04315 3.29465 8.01766C3.32587 8.0304 3.35449 8.04825 3.38571 8.06355C3.50277 8.11964 3.23482 7.92588 3.34668 8.0355C3.45335 8.14003 3.28165 7.91823 3.31026 7.98452C3.32587 8.02021 3.34929 8.05335 3.36489 8.08904C3.33888 8.02786 3.31286 7.96667 3.28685 7.90548C3.30766 7.95902 3.32067 8.01256 3.33107 8.0712C3.32067 8.00236 3.31286 7.93608 3.30246 7.86724C3.31807 8.05845 3.30766 8.25731 3.30766 8.44851C3.30766 8.87682 3.30766 9.30258 3.30766 9.73089C3.30766 10.692 3.30766 11.6506 3.30766 12.6118C3.30766 12.8489 3.32327 13.0911 3.30246 13.3256C3.31286 13.2568 3.32067 13.1905 3.33107 13.1217C3.32327 13.1803 3.30766 13.2313 3.28685 13.2874C3.31286 13.2262 3.33888 13.165 3.36489 13.1038C3.35189 13.1344 3.33368 13.1624 3.31807 13.193C3.26083 13.3078 3.45855 13.0452 3.34668 13.1548C3.24002 13.2593 3.46635 13.0911 3.39871 13.1191C3.36229 13.1344 3.32847 13.1574 3.29205 13.1726C3.35449 13.1472 3.41692 13.1217 3.47936 13.0962C3.42473 13.1166 3.3701 13.1293 3.31026 13.1395C3.3805 13.1293 3.44814 13.1217 3.51838 13.1115C3.49497 13.114 3.47156 13.1166 3.44814 13.1166C3.03971 13.1268 2.64948 13.4607 2.66769 13.8814C2.6859 14.2868 3.01109 14.659 3.44814 14.6462C4.2468 14.6233 4.86076 14.0063 4.86596 13.2236C4.86596 13.0477 4.86596 12.8718 4.86596 12.6959C4.86596 11.9566 4.86596 11.2198 4.86596 10.4804C4.86596 9.77678 4.86596 9.07313 4.86596 8.36948C4.86596 8.22671 4.86856 8.08394 4.86596 7.94117C4.84775 7.16104 4.21819 6.55172 3.41953 6.54408C2.77175 6.53898 2.12398 6.54408 1.47881 6.54408C0.669742 6.54408 0.0219682 7.13555 0.00115622 7.93607C-0.00144528 8.061 0.00115622 8.18847 0.00115622 8.31339C0.00115622 9.75128 0.00115622 11.1892 0.00115622 12.6271C0.00115622 12.8183 0.00115622 13.012 0.00115622 13.2032C0.00375772 13.8508 0.430404 14.478 1.10679 14.608C1.41897 14.6692 1.74936 14.6437 2.06675 14.6437C2.45437 14.6437 2.84199 14.6437 3.22962 14.6437C3.30246 14.6437 3.3779 14.6437 3.45074 14.6437C3.85918 14.6437 4.2494 14.2919 4.23119 13.8788C4.21038 13.4658 3.88519 13.1166 3.44814 13.1166Z" fill="#323232"/>
  <path d="M20.5808 13.1166C20.2374 13.1166 19.8966 13.1166 19.5532 13.1166C19.2072 13.1166 18.8508 13.1421 18.5048 13.1115C18.5751 13.1217 18.6427 13.1293 18.7129 13.1395C18.6531 13.1319 18.6011 13.1166 18.5438 13.0962C18.6063 13.1217 18.6687 13.1472 18.7312 13.1726C18.6999 13.1599 18.6713 13.1421 18.6401 13.1268C18.523 13.0707 18.791 13.2644 18.6791 13.1548C18.5725 13.0503 18.7442 13.2721 18.7155 13.2058C18.6999 13.1701 18.6765 13.137 18.6609 13.1013C18.6869 13.1625 18.7129 13.2236 18.739 13.2848C18.7181 13.2313 18.7051 13.1777 18.6947 13.1191C18.7051 13.1879 18.7129 13.2542 18.7233 13.3231C18.7077 13.1319 18.7181 12.933 18.7181 12.7418C18.7181 12.3135 18.7181 11.8877 18.7181 11.4594C18.7181 10.4983 18.7181 9.53968 18.7181 8.57854C18.7181 8.34144 18.7025 8.09924 18.7233 7.86469C18.7129 7.93353 18.7051 7.99981 18.6947 8.06865C18.7025 8.01001 18.7181 7.95902 18.739 7.90293C18.7129 7.96412 18.6869 8.02531 18.6609 8.08649C18.6739 8.0559 18.6921 8.02786 18.7077 7.99726C18.765 7.88254 18.5673 8.14513 18.6791 8.0355C18.7858 7.93098 18.5595 8.09924 18.6271 8.0712C18.6635 8.0559 18.6973 8.03295 18.7338 8.01766C18.6713 8.04315 18.6089 8.06865 18.5464 8.09414C18.6011 8.07375 18.6557 8.061 18.7155 8.0508C18.6453 8.061 18.5777 8.06865 18.5074 8.07884C18.8612 8.04825 19.2254 8.07375 19.5818 8.07375C19.9356 8.07375 20.3025 8.04825 20.6563 8.07884C20.586 8.06865 20.5184 8.061 20.4481 8.0508C20.508 8.05845 20.56 8.07375 20.6172 8.09414C20.5548 8.06865 20.4924 8.04315 20.4299 8.01766C20.4612 8.03041 20.4898 8.04825 20.521 8.06355C20.6381 8.11964 20.3701 7.92588 20.482 8.0355C20.5886 8.14003 20.4169 7.91823 20.4455 7.98452C20.4611 8.02021 20.4846 8.05335 20.5002 8.08904C20.4742 8.02786 20.4481 7.96667 20.4221 7.90548C20.4429 7.95902 20.4559 8.01256 20.4664 8.0712C20.4559 8.00236 20.4481 7.93608 20.4377 7.86724C20.4533 8.05845 20.4429 8.25731 20.4429 8.44851C20.4429 8.87682 20.4429 9.30258 20.4429 9.73089C20.4429 10.692 20.4429 11.6506 20.4429 12.6118C20.4429 12.8489 20.4585 13.0911 20.4377 13.3256C20.4481 13.2568 20.4559 13.1905 20.4664 13.1217C20.4585 13.1803 20.4429 13.2313 20.4221 13.2874C20.4481 13.2262 20.4742 13.165 20.5002 13.1038C20.4872 13.1344 20.469 13.1625 20.4533 13.193C20.3961 13.3078 20.5938 13.0452 20.482 13.1548C20.3753 13.2593 20.6016 13.0911 20.534 13.1191C20.4976 13.1344 20.4638 13.1574 20.4273 13.1726C20.4898 13.1472 20.5522 13.1217 20.6146 13.0962C20.56 13.1166 20.5054 13.1293 20.4455 13.1395C20.5158 13.1293 20.5834 13.1217 20.6537 13.1115C20.6276 13.114 20.6042 13.1166 20.5808 13.1166C20.1724 13.1268 19.7822 13.4607 19.8004 13.8814C19.8186 14.2868 20.1438 14.659 20.5808 14.6462C21.3795 14.6233 21.9934 14.0063 21.9986 13.2236C21.9986 13.0477 21.9986 12.8718 21.9986 12.6959C21.9986 11.9668 21.9986 11.2376 21.9986 10.5059C21.9986 9.79462 21.9986 9.08333 21.9986 8.36948C21.9986 8.22671 22.0012 8.08394 21.9986 7.94117C21.983 7.16104 21.3561 6.54917 20.56 6.54408C19.92 6.53898 19.2775 6.54408 18.6375 6.54408C17.8284 6.54408 17.1781 7.133 17.1598 7.93608C17.1572 8.061 17.1598 8.18847 17.1598 8.31339C17.1598 9.74619 17.1598 11.179 17.1598 12.6118C17.1598 12.8081 17.1598 13.0044 17.1598 13.1981C17.1598 13.8355 17.5709 14.455 18.2291 14.6029C18.5412 14.6717 18.882 14.6462 19.1994 14.6462C19.587 14.6462 19.9721 14.6462 20.3597 14.6462C20.4325 14.6462 20.508 14.6462 20.5808 14.6462C20.9893 14.6462 21.3795 14.2944 21.3613 13.8814C21.3405 13.4658 21.0179 13.1166 20.5808 13.1166Z" fill="#323232"/>
  <path d="M11.5751 18.4598C11.3617 18.4598 11.1484 18.4598 10.9351 18.4598C10.7062 18.4598 10.472 18.4751 10.2431 18.4471C10.3133 18.4573 10.381 18.4649 10.4512 18.4751C10.3341 18.4573 10.2223 18.4292 10.1156 18.3859C10.1781 18.4114 10.2405 18.4369 10.3029 18.4624C10.2301 18.4318 10.1572 18.3961 10.0896 18.3527C9.93092 18.2508 10.2041 18.4573 10.1104 18.3731C10.0818 18.3476 10.0506 18.3221 10.022 18.2941C9.99335 18.2661 9.96734 18.238 9.94132 18.2074C9.85287 18.1105 10.0532 18.3808 9.97254 18.2406C9.92832 18.1666 9.88669 18.0978 9.85027 18.0188C9.87628 18.0799 9.9023 18.1411 9.92831 18.2023C9.88409 18.0952 9.85547 17.9856 9.83726 17.8734C9.84767 17.9423 9.85547 18.0086 9.86588 18.0774C9.85027 17.9601 9.85027 17.8428 9.86588 17.7256C9.85547 17.7944 9.84767 17.8607 9.83726 17.9295C9.85547 17.8148 9.88409 17.7052 9.92831 17.6006C9.9023 17.6618 9.87628 17.723 9.85027 17.7842C9.88149 17.7128 9.91791 17.6414 9.96213 17.5752C10.0662 17.4196 9.85547 17.6873 9.94132 17.5955C9.96734 17.5675 9.99335 17.5369 10.022 17.5089C10.0506 17.4808 10.0792 17.4553 10.1104 17.4298C10.2093 17.3432 9.93352 17.5395 10.0766 17.4604C10.152 17.4171 10.2223 17.3763 10.3029 17.3406C10.2405 17.3661 10.1781 17.3916 10.1156 17.4171C10.2249 17.3737 10.3368 17.3457 10.4512 17.3279C10.381 17.3381 10.3133 17.3457 10.2431 17.3559C10.4902 17.3253 10.7478 17.3432 10.9975 17.3432C11.2473 17.3432 11.5048 17.3253 11.752 17.3559C11.6817 17.3457 11.6141 17.3381 11.5438 17.3279C11.6609 17.3457 11.7728 17.3737 11.8794 17.4171C11.817 17.3916 11.7546 17.3661 11.6921 17.3406C11.765 17.3712 11.8378 17.4069 11.9055 17.4502C12.0641 17.5522 11.791 17.3457 11.8846 17.4298C11.9133 17.4553 11.9445 17.4808 11.9731 17.5089C12.0017 17.5369 12.0277 17.565 12.0537 17.5955C12.1422 17.6924 11.9419 17.4222 12.0225 17.5624C12.0667 17.6363 12.1084 17.7052 12.1448 17.7842C12.1188 17.723 12.0928 17.6618 12.0667 17.6006C12.111 17.7077 12.1396 17.8173 12.1578 17.9295C12.1474 17.8607 12.1396 17.7944 12.1292 17.7256C12.1448 17.8428 12.1448 17.9601 12.1292 18.0774C12.1396 18.0086 12.1474 17.9423 12.1578 17.8734C12.1396 17.9882 12.111 18.0978 12.0667 18.2023C12.0928 18.1411 12.1188 18.0799 12.1448 18.0188C12.1136 18.0901 12.0772 18.1615 12.0329 18.2278C11.9289 18.3833 12.1396 18.1156 12.0537 18.2074C12.0277 18.2355 12.0017 18.2661 11.9731 18.2941C11.9445 18.3221 11.9159 18.3476 11.8846 18.3731C11.7858 18.4598 12.0615 18.2635 11.9185 18.3425C11.843 18.3859 11.7728 18.4267 11.6921 18.4624C11.7546 18.4369 11.817 18.4114 11.8794 18.3859C11.7702 18.4292 11.6583 18.4573 11.5438 18.4751C11.6141 18.4649 11.6817 18.4573 11.752 18.4471C11.6947 18.4547 11.6349 18.4598 11.5751 18.4598C11.1666 18.4649 10.7764 18.8065 10.7946 19.2246C10.8128 19.6351 11.138 19.9946 11.5751 19.9895C12.2879 19.9793 12.9096 19.6428 13.3259 19.0844C13.6901 18.5975 13.7915 17.9321 13.6302 17.3534C13.4585 16.7338 12.9903 16.229 12.3919 15.9792C12.0251 15.8288 11.6505 15.8109 11.2603 15.8109C10.9871 15.8109 10.714 15.8084 10.4408 15.8109C9.86588 15.8135 9.29355 16.0353 8.89292 16.4483C8.40904 16.948 8.22433 17.6057 8.33099 18.2788C8.42465 18.8703 8.83308 19.4108 9.35859 19.709C10.0246 20.0838 10.8362 19.9895 11.5751 19.9895C11.9835 19.9895 12.3737 19.6377 12.3555 19.2246C12.3373 18.8116 12.0121 18.4598 11.5751 18.4598Z" fill="#323232"/>
  <path d="M12.9261 18.6643C13.9745 18.6643 15.0255 18.6643 16.0739 18.6643C16.3756 18.6643 16.68 18.649 16.9688 18.5547C17.5723 18.3583 18.1082 17.9504 18.4074 17.3947C18.6025 17.0275 18.704 16.6324 18.7066 16.2194C18.7066 16.125 18.7066 16.0307 18.7066 15.9338C18.7066 14.8656 18.7066 13.7999 18.7066 12.7317C18.7066 11.4315 18.7066 10.1313 18.7066 8.83105C18.7066 7.8597 18.7352 6.90111 18.5297 5.94252C18.1004 3.95395 16.7919 2.19482 15.0411 1.12406C13.2434 0.0252416 10.9931 -0.285791 8.95357 0.269989C6.95822 0.813022 5.21522 2.16933 4.23185 3.9565C3.71415 4.89469 3.41238 5.91702 3.32133 6.98014C3.28491 7.40335 3.29791 7.82911 3.29791 8.25232C3.29791 9.46586 3.29791 10.6768 3.29791 11.8904C3.29791 11.9796 3.29791 12.0714 3.29791 12.1606C3.29791 12.5609 3.65692 12.9433 4.07836 12.9255C4.50241 12.9076 4.85881 12.5889 4.85881 12.1606C4.85881 11.5615 4.85881 10.9598 4.85881 10.3607C4.85881 9.51685 4.85881 8.67298 4.85881 7.82911C4.85881 7.43905 4.86662 7.05408 4.91865 6.66656C4.90824 6.7354 4.90044 6.80168 4.89003 6.87052C4.97068 6.2765 5.13197 5.69777 5.3661 5.14454C5.34009 5.20573 5.31407 5.26691 5.28806 5.3281C5.42334 5.01707 5.57943 4.71368 5.75893 4.42559C5.85258 4.27773 5.94884 4.13241 6.0529 3.98964C6.07631 3.95904 6.09973 3.9259 6.12314 3.89531C6.13355 3.88256 6.15176 3.84942 6.16476 3.84177C6.17777 3.83412 6.0477 3.98964 6.09452 3.931C6.15176 3.86217 6.20899 3.79078 6.26882 3.72195C6.48995 3.46445 6.72929 3.2248 6.98684 3.003C7.05188 2.94691 7.11691 2.89337 7.18195 2.83984C7.21317 2.81434 7.24439 2.7914 7.2756 2.7659C7.39527 2.67157 7.12992 2.87298 7.25479 2.78375C7.39788 2.67922 7.54356 2.57979 7.69184 2.48801C8.02223 2.28151 8.37084 2.10304 8.72984 1.95518C8.66741 1.98067 8.60497 2.00617 8.54253 2.03166C9.10706 1.79966 9.6976 1.64414 10.3037 1.56511C10.2335 1.57531 10.1659 1.58296 10.0956 1.59315C10.6966 1.51667 11.3027 1.51667 11.9037 1.59315C11.8334 1.58296 11.7658 1.57531 11.6956 1.56511C12.3017 1.64414 12.8922 1.80221 13.4568 2.03166C13.3943 2.00617 13.3319 1.98067 13.2695 1.95518C13.5868 2.08775 13.8964 2.24071 14.1904 2.41663C14.3413 2.50841 14.4896 2.60274 14.6352 2.70471C14.6665 2.72766 14.7003 2.7506 14.7315 2.77355C14.7445 2.78375 14.7783 2.80159 14.7861 2.81434C14.7939 2.82709 14.6352 2.69962 14.6951 2.74551C14.7653 2.80159 14.8382 2.85768 14.9084 2.91632C15.1712 3.13302 15.4157 3.36757 15.642 3.61997C15.6993 3.6837 15.7539 3.74744 15.8085 3.81118C15.8345 3.84177 15.858 3.87236 15.884 3.90296C15.9802 4.02023 15.7747 3.76019 15.8658 3.88256C15.9724 4.02278 16.0739 4.16555 16.1675 4.31087C16.3782 4.63465 16.5604 4.97628 16.7112 5.3281C16.6852 5.26691 16.6592 5.20573 16.6332 5.14454C16.8699 5.69777 17.0286 6.2765 17.1093 6.87052C17.0989 6.80168 17.0911 6.7354 17.0807 6.66656C17.1457 7.15606 17.1405 7.64555 17.1405 8.1376C17.1405 8.82085 17.1405 9.5041 17.1405 10.1848C17.1405 11.0695 17.1405 11.9516 17.1405 12.8362C17.1405 13.6113 17.1405 14.3888 17.1405 15.1639C17.1405 15.5234 17.1431 15.8828 17.1405 16.2423C17.1405 16.3162 17.1353 16.3876 17.1275 16.459C17.1379 16.3902 17.1457 16.3239 17.1561 16.255C17.1353 16.4029 17.0963 16.5457 17.0364 16.6859C17.0624 16.6247 17.0885 16.5635 17.1145 16.5023C17.0729 16.5941 17.026 16.6859 16.9688 16.77C16.9558 16.7879 16.9428 16.8057 16.9298 16.8261C16.8621 16.9256 17.039 16.6987 16.9792 16.7649C16.9428 16.8006 16.9116 16.8414 16.8751 16.8771C16.8439 16.9077 16.8075 16.9383 16.7737 16.9689C16.6774 17.0581 16.9038 16.8797 16.8387 16.923C16.8205 16.9358 16.8023 16.9485 16.7815 16.9612C16.6904 17.0224 16.5942 17.0709 16.4953 17.1142C16.5578 17.0887 16.6202 17.0632 16.6826 17.0377C16.5421 17.0938 16.3939 17.1346 16.243 17.155C16.3132 17.1448 16.3809 17.1372 16.4511 17.127C16.0427 17.1754 15.6134 17.1397 15.2024 17.1397C14.5884 17.1397 13.9745 17.1397 13.3605 17.1397C13.2148 17.1397 13.0691 17.1397 12.9235 17.1397C12.515 17.1397 12.1248 17.4915 12.143 17.9045C12.1664 18.315 12.489 18.6643 12.9261 18.6643Z" fill="#323232"/>
</svg>