<svg xmlns="http://www.w3.org/2000/svg" width="25" height="25" viewBox="0 0 25 25" fill="none">
  <path d="M12.2989 1.84482C18.0724 1.84482 22.7528 6.52523 22.7528 12.2988C22.7528 12.8082 23.1658 13.2212 23.6753 13.2212C24.1847 13.2212 24.5977 12.8082 24.5977 12.2988C24.5977 5.50636 19.0912 0 12.2989 0C8.62472 0 5.32744 1.61157 3.07474 4.16381V0.922411C3.07474 0.412982 2.66176 0 2.15233 0C1.6429 0 1.22992 0.412982 1.22992 0.922411V6.45688C1.22992 6.96631 1.6429 7.37929 2.15233 7.37929H7.6868C8.19622 7.37929 8.60921 6.96631 8.60921 6.45688C8.60921 5.94745 8.19622 5.53447 7.6868 5.53447H4.32793C6.24644 3.27591 9.10575 1.84482 12.2989 1.84482Z" fill="#303030"/>
  <path d="M0.922411 11.3764C0.412982 11.3764 0 11.7894 0 12.2988C0 19.0912 5.50636 24.5976 12.2988 24.5976C15.9728 24.5976 19.2703 22.986 21.5229 20.4339V23.6752C21.5229 24.1846 21.9359 24.5976 22.4453 24.5976C22.9547 24.5976 23.3677 24.1846 23.3677 23.6752V18.1408C23.3677 17.6313 22.9547 17.2183 22.4453 17.2183H16.9109C16.4014 17.2183 15.9885 17.6313 15.9885 18.1408C15.9885 18.6502 16.4014 19.0632 16.9109 19.0632H20.2697C18.3511 21.3218 15.492 22.7528 12.2988 22.7528C6.52523 22.7528 1.84482 18.0724 1.84482 12.2988C1.84482 11.7894 1.43184 11.3764 0.922411 11.3764Z" fill="#303030"/>
</svg>