<svg xmlns="http://www.w3.org/2000/svg" width="24" height="22" viewBox="0 0 24 22" fill="none">
  <path d="M20.5147 21H3.43934C2.09213 21 1 19.908 1 18.5607V7.58366C1 6.23645 2.09213 5.14432 3.43934 5.14432H20.5147C21.862 5.14432 22.9541 6.23645 22.9541 7.58366V18.5607C22.9541 19.908 21.862 21 20.5147 21Z" stroke="black" stroke-width="1.5"/>
  <path d="M17.4655 13.682C17.1288 13.682 16.8557 13.4089 16.8557 13.0722C16.8557 12.7354 17.1288 12.4623 17.4655 12.4623C17.8023 12.4623 18.0754 12.7354 18.0754 13.0722C18.0754 13.4089 17.8023 13.682 17.4655 13.682Z" fill="black" stroke="black" stroke-width="1.5" stroke-linecap="round" stroke-linejoin="round"/>
  <path d="M19.2951 5.14429V3.44067C19.2951 1.83795 17.7759 0.670738 16.2272 1.08369L2.81081 4.66141C1.74299 4.94616 1 5.91324 1 7.01839V7.58363" stroke="black" stroke-width="1.5"/>
</svg>